<svg width="210" height="37" viewBox="0 0 210 37" fill="none" xmlns="http://www.w3.org/2000/svg">
<g clip-path="url(#clip0_4322_1345)">
<path d="M187.491 29.875V30.625C187.491 30.8321 187.314 31 187.096 31C186.877 31 186.7 30.8321 186.7 30.625V29.125C186.7 28.9179 186.523 28.75 186.304 28.75C186.085 28.75 185.908 28.9179 185.908 29.125V30.625C185.908 30.8321 185.731 31 185.512 31C185.294 31 185.116 30.8321 185.116 30.625V28.375C185.116 28.1679 184.939 28 184.721 28C184.502 28 184.325 28.1679 184.325 28.375V30.625C184.325 30.8321 184.148 31 183.929 31C183.71 31 183.533 30.8321 183.533 30.625V24.625C183.533 24.4179 183.356 24.25 183.137 24.25C182.919 24.25 182.741 24.4179 182.741 24.625V28.375V30.2856C182.741 30.5338 182.65 30.7741 182.482 30.9647C182.086 31.4149 181.38 31.4757 180.905 31.1006L180.173 30.5232C179.95 30.3467 179.668 30.25 179.377 30.25C179.166 30.25 178.974 30.3645 178.882 30.5445L178.854 30.6001C178.747 30.8107 178.78 31.0611 178.937 31.241L182.431 35.2311C182.996 35.8765 183.835 36.25 184.721 36.25C186.688 36.25 188.283 34.739 188.283 32.875V29.875C188.283 29.6679 188.106 29.5 187.887 29.5C187.669 29.5 187.491 29.6679 187.491 29.875ZM187.45 28.8288C187.585 28.7779 187.733 28.75 187.887 28.75C188.543 28.75 189.075 29.2537 189.075 29.875V32.875C189.075 35.1532 187.125 37 184.721 37C183.6 37 182.537 36.5272 181.822 35.71L178.328 31.7199C177.973 31.3143 177.9 30.7498 178.141 30.2749L178.169 30.2193C178.392 29.7796 178.862 29.5 179.377 29.5C179.853 29.5 180.314 29.6582 180.68 29.947L181.412 30.5244C181.551 30.6343 181.758 30.6165 181.874 30.4846C181.923 30.4287 181.95 30.3583 181.95 30.2856V28.375V24.625C181.95 24.0037 182.481 23.5 183.137 23.5C183.793 23.5 184.325 24.0037 184.325 24.625V27.314C184.449 27.2726 184.582 27.25 184.721 27.25C185.268 27.25 185.729 27.6012 185.867 28.0788C186.002 28.0279 186.15 28 186.304 28C186.852 28 187.313 28.3512 187.45 28.8288ZM185.908 24.625C185.908 24.8321 185.731 25 185.512 25C185.294 25 185.116 24.8321 185.116 24.625C185.116 23.5895 184.23 22.75 183.137 22.75C182.044 22.75 181.158 23.5895 181.158 24.625C181.158 24.8321 180.981 25 180.762 25C180.544 25 180.366 24.8321 180.366 24.625C180.366 23.1753 181.607 22 183.137 22C184.668 22 185.908 23.1753 185.908 24.625Z" fill="#F86338"/>
<path d="M0.375977 28V1.18005H5.77598L15.82 14.5H13.3L23.056 1.18005H28.456V28H22.876V7.33605L25.108 7.84005L14.776 21.16H14.056L4.08398 7.84005L5.95598 7.33605V28H0.375977ZM31.2319 28L40.3039 1.18005H47.7199L56.7919 28H50.7079L48.9079 22.528H39.0799L37.2799 28H31.2319ZM40.6279 17.668H47.3599L43.2559 4.99605H44.7679L40.6279 17.668ZM68.9836 28.432C67.3036 28.432 65.7196 28.132 64.2316 27.532C62.7676 26.908 61.4956 26.032 60.4156 24.904C59.3596 23.776 58.5676 22.444 58.0396 20.908L62.6116 18.856C63.2836 20.32 64.2076 21.472 65.3836 22.312C66.5836 23.152 67.9036 23.572 69.3436 23.572C70.1116 23.572 70.7716 23.452 71.3236 23.212C71.8756 22.972 72.3076 22.648 72.6196 22.24C72.9316 21.808 73.0876 21.304 73.0876 20.728C73.0876 20.104 72.8956 19.576 72.5116 19.144C72.1276 18.688 71.5276 18.328 70.7116 18.064L65.4556 16.336C63.3196 15.64 61.7116 14.656 60.6316 13.384C59.5516 12.088 59.0116 10.54 59.0116 8.74005C59.0116 7.15605 59.3956 5.76405 60.1636 4.56405C60.9556 3.36405 62.0476 2.42805 63.4396 1.75605C64.8556 1.08405 66.4756 0.748047 68.2996 0.748047C69.9076 0.748047 71.3956 1.02405 72.7636 1.57605C74.1316 2.12805 75.3076 2.90805 76.2916 3.91605C77.2996 4.92405 78.0556 6.13605 78.5596 7.55205L74.0236 9.60405C73.5196 8.35605 72.7636 7.38405 71.7556 6.68805C70.7476 5.96805 69.5956 5.60805 68.2996 5.60805C67.5556 5.60805 66.8956 5.72805 66.3196 5.96805C65.7436 6.20805 65.2996 6.55605 64.9876 7.01205C64.6756 7.44405 64.5196 7.94805 64.5196 8.52405C64.5196 9.14805 64.7236 9.70005 65.1316 10.18C65.5396 10.636 66.1516 10.996 66.9676 11.26L72.1156 12.916C74.2756 13.612 75.8836 14.584 76.9396 15.832C78.0196 17.08 78.5596 18.604 78.5596 20.404C78.5596 21.964 78.1516 23.356 77.3356 24.58C76.5196 25.78 75.3916 26.728 73.9516 27.424C72.5356 28.096 70.8796 28.432 68.9836 28.432ZM69.3436 36.64C68.7196 36.64 67.9996 36.5441 67.1836 36.3521C66.3916 36.1601 65.7076 35.872 65.1316 35.488L66.2476 32.5C66.6076 32.716 66.9916 32.8841 67.3996 33.0041C67.8316 33.1241 68.2396 33.184 68.6236 33.184C69.1516 33.184 69.5476 33.0761 69.8116 32.8601C70.0996 32.6681 70.2436 32.392 70.2436 32.032C70.2436 31.6 69.9556 31.252 69.3796 30.988C68.8036 30.724 67.9756 30.544 66.8956 30.448L67.6156 27.64H70.6756L70.3876 29.008C71.6596 29.128 72.6676 29.5 73.4116 30.124C74.1556 30.748 74.5276 31.528 74.5276 32.464C74.5276 33.736 74.0596 34.744 73.1236 35.488C72.1876 36.256 70.9276 36.64 69.3436 36.64ZM82.5362 28V1.18005H88.1162V28H82.5362ZM92.8721 28V1.18005H97.1561L111.556 20.152L109.252 20.692V1.18005H114.832V28H110.512L96.3641 8.88405L98.4521 8.34405V28H92.8721ZM124.415 28V6.04005H117.611V1.18005H136.691V6.04005H129.995V28H124.415ZM135.681 28L144.753 1.18005H152.169L161.241 28H155.157L153.357 22.528H143.529L141.729 28H135.681ZM145.077 17.668H151.809L147.705 4.99605H149.217L145.077 17.668ZM164.028 28V1.18005H174.324C176.172 1.18005 177.804 1.50405 179.22 2.15205C180.66 2.80005 181.788 3.76005 182.604 5.03205C183.42 6.30405 183.828 7.87605 183.828 9.74805C183.828 11.572 183.408 13.12 182.568 14.392C181.752 15.664 180.624 16.636 179.184 17.308C177.768 17.956 176.148 18.28 174.324 18.28H169.608V28H164.028ZM169.608 13.42H174.36C175.152 13.42 175.836 13.264 176.412 12.952C176.988 12.64 177.432 12.208 177.744 11.656C178.08 11.104 178.248 10.468 178.248 9.74805C178.248 9.00405 178.08 8.35605 177.744 7.80405C177.432 7.25205 176.988 6.82005 176.412 6.50805C175.836 6.19605 175.152 6.04005 174.36 6.04005H169.608V13.42ZM191.654 28L195.182 17.57H198.066L201.594 28H199.228L198.528 25.872H194.706L194.006 28H191.654ZM195.308 23.982H197.926L196.33 19.054H196.918L195.308 23.982ZM201.908 28V26.25L206.654 19.46H202.188V17.57H209.398V19.32L204.666 26.11H209.538V28H201.908Z" fill="#528C8C"/>
</g>
<defs>
<clipPath id="clip0_4322_1345">
<rect width="210" height="37" fill="white"/>
</clipPath>
</defs>
</svg>
