<svg width="26" height="26" viewBox="0 0 26 26" fill="none" xmlns="http://www.w3.org/2000/svg">
<path d="M19.4059 21.2895L16.8153 23.8801V24.9163H8.52544V23.8801L5.93486 21.2895M19.4059 21.2895H19.924V17.6627H18.8878M19.4059 21.2895H5.93486M18.8878 17.6627V12.9997H18.3696V4.1917M18.8878 17.6627H15.7791M18.3696 4.1917C18.7151 4.1917 19.4059 3.88083 19.4059 2.63736H15.7791C15.7791 2.11924 15.1573 1.08301 12.6704 1.08301C10.1834 1.08301 9.56168 2.11924 9.56168 2.63736H5.93486C5.93486 3.88083 6.62569 4.1917 6.9711 4.1917M18.3696 4.1917H15.7791M5.93486 21.2895H5.41675V17.6627H6.45298M6.45298 17.6627V12.9997H6.9711V4.1917M6.45298 17.6627H9.56168M6.9711 4.1917H9.56168M15.7791 17.6627V4.1917M15.7791 17.6627H12.6704M15.7791 4.1917H12.6704M12.6704 4.1917V17.6627M12.6704 4.1917H9.56168M12.6704 17.6627H9.56168M9.56168 17.6627V4.1917" stroke="black" stroke-width="0.5" stroke-linecap="round" stroke-linejoin="round"/>
</svg>
