<svg width="26" height="26" viewBox="0 0 26 26" fill="none" xmlns="http://www.w3.org/2000/svg">
<path d="M2.82531 21.171H2.26844V23.8337H23.7507V21.171H23.1509M2.82531 21.171V7.86511M2.82531 21.171H23.1509M2.82531 7.86511H2.66675C2.39061 7.86511 2.16675 7.64125 2.16675 7.36511V5.55374C2.16675 5.27759 2.39061 5.05374 2.66675 5.05374H3.80916M2.82531 7.86511H23.1509M23.1509 21.171V7.86511M23.1509 7.86511H23.3334C23.6096 7.86511 23.8334 7.64125 23.8334 7.36511V5.55374C23.8334 5.27759 23.6096 5.05374 23.3334 5.05374H22.1525M3.80916 5.05374V3.19553C3.80916 2.64324 4.25688 2.19553 4.80916 2.19553H7.08451C7.63556 2.19553 8.08277 2.64133 8.0845 3.19238L8.09036 5.05374M3.80916 5.05374H8.09036M8.09036 5.05374H17.9131M17.9131 5.05374V3.16699C17.9131 2.61471 18.3608 2.16699 18.9131 2.16699H21.1525C21.7048 2.16699 22.1525 2.61471 22.1525 3.16699V5.05374M17.9131 5.05374H22.1525" stroke="black" stroke-width="0.5" stroke-linecap="round" stroke-linejoin="round"/>
<path d="M13.5397 11.454L13.0865 14.1921L13.0625 14.3375H13.2098H14.9594L12.5669 18.8629L12.9147 15.6951L12.93 15.5564H12.7905H11.0553L13.5397 11.454Z" stroke="black" stroke-width="0.25"/>
<path d="M5.86195 4.32273V3.87965H5.41675V3.69309H5.86195V3.25H6.05488V3.69309H6.50008V3.87965H6.05488V4.32273H5.86195Z" fill="black"/>
<path d="M19.5 3.92655V3.5752H20.5833V3.92655H19.5Z" fill="black"/>
</svg>
