<svg width="9" height="25" viewBox="0 0 9 25" fill="none" xmlns="http://www.w3.org/2000/svg">
<path d="M4.49992 24.2091C6.07303 24.2091 7.35408 22.9501 7.35408 21.3899C7.35408 19.8298 6.07303 18.5708 4.49992 18.5708C2.92681 18.5708 1.64575 19.8298 1.64575 21.3899C1.64575 22.9501 2.92681 24.2091 4.49992 24.2091Z" stroke="black" stroke-width="0.5" stroke-linecap="round" stroke-linejoin="round"/>
<path d="M4.49984 22.0536C4.86841 22.0536 5.17067 21.7583 5.17067 21.3898C5.17067 21.0213 4.86841 20.726 4.49984 20.726C4.13127 20.726 3.829 21.0213 3.829 21.3898C3.829 21.7583 4.13127 22.0536 4.49984 22.0536Z" stroke="black" stroke-width="0.3"/>
<path d="M4.5 7.45791C6.36076 7.45791 7.875 5.96888 7.875 4.12495C7.875 2.28103 6.36076 0.791992 4.5 0.791992C2.63924 0.791992 1.125 2.28103 1.125 4.12495C1.125 5.96888 2.63924 7.45791 4.5 7.45791Z" stroke="black" stroke-width="0.5"/>
<path d="M4.5 5.91597C5.49781 5.91597 6.3125 5.11708 6.3125 4.12449C6.3125 3.1319 5.49781 2.33301 4.5 2.33301C3.50219 2.33301 2.6875 3.1319 2.6875 4.12449C2.6875 5.11708 3.50219 5.91597 4.5 5.91597Z" stroke="black" stroke-width="0.5"/>
<path d="M1.89575 14.7597L7.10409 13.542M1.89575 16.4003L7.10409 15.1826M1.89575 17.8847L7.10409 16.667" stroke="black" stroke-width="0.5" stroke-linecap="round" stroke-linejoin="round"/>
</svg>
