<svg width="26" height="26" viewBox="0 0 26 26" fill="none" xmlns="http://www.w3.org/2000/svg">
<path d="M0.833252 13.0001L0.833252 13.2501H1.08325H3.46659H3.71659V13.0001C3.71659 10.5709 4.66873 8.23854 6.36873 6.50336C8.06874 4.76818 10.3811 3.76847 12.8098 3.71872L13.0597 3.7136L13.0546 3.46365L13.0058 1.08082L13.0007 0.83087L12.7507 0.83599C9.56777 0.90119 6.53715 2.21141 4.30914 4.48552C2.08113 6.75964 0.833252 9.81646 0.833252 13.0001Z" stroke="black" stroke-width="0.5"/>
<rect x="13.5415" y="13.542" width="1.08333" height="1.08333" rx="0.541667" fill="black"/>
<circle cx="14.0833" cy="14.083" r="3.5" stroke="black" stroke-width="0.5"/>
<path d="M16.453 21.287C12.4747 22.5957 8.18878 20.4317 6.88004 16.4534C5.5713 12.4752 7.73538 8.18919 11.7136 6.88045C15.6919 5.57171 19.9779 7.73578 21.2866 11.714C22.5953 15.6923 20.4313 19.9783 16.453 21.287Z" stroke="black" stroke-width="0.5" stroke-linecap="round" stroke-linejoin="round" stroke-dasharray="5 5"/>
</svg>
