<svg width="30" height="30" viewBox="0 0 30 30" fill="none" xmlns="http://www.w3.org/2000/svg">
<path d="M15 12.75C16.7432 12.75 18.331 12.5383 19.4913 12.1903C20.0698 12.0167 20.5561 11.8051 20.9035 11.5587C21.2443 11.317 21.5 11.0051 21.5 10.625C21.5 10.2449 21.2443 9.933 20.9035 9.69125C20.5561 9.4449 20.0698 9.23327 19.4913 9.05972C18.331 8.71166 16.7432 8.5 15 8.5C13.2568 8.5 11.669 8.71166 10.5087 9.05972C9.93023 9.23327 9.44385 9.4449 9.09652 9.69125C8.75569 9.933 8.5 10.2449 8.5 10.625C8.5 11.0051 8.75569 11.317 9.09652 11.5587C9.44385 11.8051 9.93023 12.0167 10.5087 12.1903C11.669 12.5383 13.2568 12.75 15 12.75Z" stroke="#8B8B8B" stroke-width="0.5"/>
<path d="M28.75 10.625V20.9673C28.75 21.6511 28.4051 22.2934 27.8046 22.6205C23.0073 25.2341 12.6542 28.1381 2.25455 22.6243C1.62609 22.2911 1.25 21.6278 1.25 20.9165V10.625M28.75 10.625C28.75 13.7316 22.5939 16.25 15 16.25C7.40608 16.25 1.25 13.7316 1.25 10.625M28.75 10.625C28.75 7.5184 22.5939 5 15 5C7.40608 5 1.25 7.5184 1.25 10.625" stroke="#8B8B8B" stroke-width="0.5" stroke-linecap="round" stroke-linejoin="round"/>
<path d="M4.375 14.375V23.5M7.5 15.625V24.375M11.25 16.25V25.25M15 16.25V25.625M18.75 16.25V25.25M22.5 15.625V24.375M26.25 14V23.125" stroke="#8B8B8B" stroke-width="0.5" stroke-linecap="round" stroke-linejoin="round"/>
</svg>
