<svg width="29" height="18" viewBox="0 0 29 18" fill="none" xmlns="http://www.w3.org/2000/svg">
<mask id="path-1-outside-1_2370_318" maskUnits="userSpaceOnUse" x="-0.583496" y="0.222656" width="19" height="17" fill="black">
<rect fill="white" x="-0.583496" y="0.222656" width="19" height="17"/>
<path d="M2.53876 13.8963C2.53876 15.4179 3.81972 16.6514 5.39987 16.6514C6.98001 16.6514 8.26097 15.4179 8.26097 13.8963C8.26097 12.3747 6.98001 11.1412 5.39987 11.1412C3.81972 11.1412 2.53876 12.3747 2.53876 13.8963Z"/>
</mask>
<path d="M6.54431 2.87574L6.76618 2.99094V2.99094L6.54431 2.87574ZM4.82764 6.1819L5.04952 6.29711C5.04651 6.3029 5.04328 6.30857 5.03983 6.31411L4.82764 6.1819ZM1.39432 13.8963V13.6463V13.8963ZM2.04457 13.6463C2.18264 13.6463 2.29457 13.7582 2.29457 13.8963C2.29457 14.0344 2.18264 14.1463 2.04457 14.1463V13.6463ZM9.40541 14.1463C9.26734 14.1463 9.15541 14.0344 9.15541 13.8963C9.15541 13.7582 9.26734 13.6463 9.40541 13.6463V14.1463ZM17.4165 13.6463C17.5546 13.6463 17.6665 13.7582 17.6665 13.8963C17.6665 14.0344 17.5546 14.1463 17.4165 14.1463V13.6463ZM8.26097 1.47266C7.93677 1.47266 7.6853 1.6174 7.44949 1.88416C7.2055 2.16018 6.99778 2.5449 6.76618 2.99094L6.32243 2.76054C6.54861 2.32493 6.78307 1.88311 7.07488 1.553C7.37488 1.21363 7.75285 0.972656 8.26097 0.972656V1.47266ZM6.76618 2.99094L5.04952 6.29711L4.60577 6.0667L6.32243 2.76053L6.76618 2.99094ZM4.82764 6.1819C5.03983 6.31411 5.03971 6.3143 5.03959 6.31449C5.03955 6.31455 5.03943 6.31475 5.03935 6.31488C5.03918 6.31514 5.03901 6.31542 5.03883 6.3157C5.03847 6.31626 5.03809 6.31686 5.03768 6.31749C5.03687 6.31875 5.03596 6.32015 5.03496 6.32167C5.03294 6.32471 5.03052 6.32827 5.02767 6.3323C5.02198 6.34036 5.01459 6.35032 5.00532 6.36188C4.98678 6.38503 4.96079 6.41453 4.92595 6.44808C4.85609 6.51536 4.75166 6.59792 4.60224 6.67786C4.30258 6.83817 3.83156 6.98293 3.11098 6.98293V6.48293C3.76374 6.48293 4.15105 6.35218 4.36638 6.23698C4.47447 6.17916 4.5417 6.12397 4.57913 6.08792C4.59794 6.06981 4.6095 6.05627 4.6151 6.04928C4.6179 6.04577 4.61923 6.04389 4.61924 6.04388C4.61924 6.04388 4.61891 6.04434 4.61828 6.0453C4.61796 6.04578 4.61757 6.04638 4.61709 6.04711C4.61686 6.04748 4.61661 6.04788 4.61633 6.04831C4.6162 6.04852 4.61606 6.04875 4.61591 6.04898C4.61584 6.04909 4.61573 6.04927 4.61569 6.04933C4.61558 6.04951 4.61546 6.0497 4.82764 6.1819ZM3.11098 6.98293C2.66309 6.98293 1.99279 7.08801 1.44405 7.39238C0.906912 7.69031 0.499878 8.16752 0.499878 8.93704H-0.00012207C-0.00012207 7.94327 0.546545 7.31843 1.20153 6.95513C1.84492 6.59826 2.60518 6.48293 3.11098 6.48293V6.98293ZM0.499878 8.93704V12.7942H-0.00012207V8.93704H0.499878ZM0.499878 12.7942C0.499878 12.9674 0.603403 13.1821 0.79068 13.3624C0.977028 13.5419 1.20419 13.6463 1.39432 13.6463L1.39432 14.1463C1.03824 14.1463 0.69318 13.9627 0.443859 13.7226C0.195469 13.4834 -0.00012207 13.147 -0.00012207 12.7942H0.499878ZM1.39432 13.6463H2.04457V14.1463H1.39432V13.6463ZM9.40541 13.6463H17.4165V14.1463H9.40541V13.6463ZM8.26097 0.972656H17.4165V1.47266H8.26097V0.972656ZM3.03876 13.8963C3.03876 15.1241 4.07791 16.1514 5.39987 16.1514V17.1514C3.56153 17.1514 2.03876 15.7117 2.03876 13.8963H3.03876ZM5.39987 16.1514C6.72182 16.1514 7.76097 15.1241 7.76097 13.8963H8.76097C8.76097 15.7117 7.2382 17.1514 5.39987 17.1514V16.1514ZM7.76097 13.8963C7.76097 12.6684 6.72182 11.6412 5.39987 11.6412V10.6412C7.2382 10.6412 8.76097 12.0809 8.76097 13.8963H7.76097ZM5.39987 11.6412C4.07791 11.6412 3.03876 12.6684 3.03876 13.8963H2.03876C2.03876 12.0809 3.56153 10.6412 5.39987 10.6412V11.6412Z" fill="black" mask="url(#path-1-outside-1_2370_318)"/>
<mask id="path-3-outside-2_2370_318" maskUnits="userSpaceOnUse" x="10.0181" y="0.222656" width="19" height="17" fill="black">
<rect fill="white" x="10.0181" y="0.222656" width="19" height="17"/>
<path d="M25.8958 13.8963C25.8958 15.4179 24.6148 16.6514 23.0347 16.6514C21.4546 16.6514 20.1736 15.4179 20.1736 13.8963C20.1736 12.3747 21.4546 11.1412 23.0347 11.1412C24.6148 11.1412 25.8958 12.3747 25.8958 13.8963Z"/>
</mask>
<path d="M21.8903 2.87574L21.6684 2.99094V2.99094L21.8903 2.87574ZM23.6069 6.1819L23.3851 6.29711C23.3881 6.3029 23.3913 6.30857 23.3947 6.31411L23.6069 6.1819ZM27.0403 13.8963V13.6463V13.8963ZM26.39 13.6463C26.2519 13.6463 26.14 13.7582 26.14 13.8963C26.14 14.0344 26.2519 14.1463 26.39 14.1463V13.6463ZM19.0292 14.1463C19.1672 14.1463 19.2792 14.0344 19.2792 13.8963C19.2792 13.7582 19.1672 13.6463 19.0292 13.6463V14.1463ZM11.0181 13.6463C10.88 13.6463 10.7681 13.7582 10.7681 13.8963C10.7681 14.0344 10.88 14.1463 11.0181 14.1463V13.6463ZM20.1736 1.47266C20.4978 1.47266 20.7493 1.6174 20.9851 1.88416C21.2291 2.16018 21.4368 2.5449 21.6684 2.99094L22.1121 2.76054C21.886 2.32493 21.6515 1.88311 21.3597 1.553C21.0597 1.21363 20.6817 0.972656 20.1736 0.972656V1.47266ZM21.6684 2.99094L23.3851 6.29711L23.8288 6.0667L22.1121 2.76053L21.6684 2.99094ZM23.6069 6.1819C23.3947 6.31411 23.3949 6.3143 23.395 6.31449C23.395 6.31455 23.3951 6.31475 23.3952 6.31488C23.3954 6.31514 23.3956 6.31542 23.3957 6.3157C23.3961 6.31626 23.3965 6.31686 23.3969 6.31749C23.3977 6.31875 23.3986 6.32015 23.3996 6.32167C23.4016 6.32471 23.4041 6.32827 23.4069 6.3323C23.4126 6.34036 23.42 6.35032 23.4292 6.36188C23.4478 6.38503 23.4738 6.41453 23.5086 6.44808C23.5785 6.51536 23.6829 6.59792 23.8323 6.67786C24.132 6.83817 24.603 6.98293 25.3236 6.98293V6.48293C24.6708 6.48293 24.2835 6.35218 24.0682 6.23698C23.9601 6.17916 23.8929 6.12397 23.8554 6.08792C23.8366 6.06981 23.8251 6.05627 23.8195 6.04928C23.8167 6.04577 23.8153 6.04389 23.8153 6.04388C23.8153 6.04388 23.8157 6.04434 23.8163 6.0453C23.8166 6.04578 23.817 6.04638 23.8175 6.04711C23.8177 6.04748 23.818 6.04788 23.8182 6.04831C23.8184 6.04852 23.8185 6.04875 23.8187 6.04898C23.8187 6.04909 23.8188 6.04927 23.8189 6.04933C23.819 6.04951 23.8191 6.0497 23.6069 6.1819ZM25.3236 6.98293C25.7715 6.98293 26.4418 7.08801 26.9905 7.39238C27.5277 7.69031 27.9347 8.16752 27.9347 8.93704H28.4347C28.4347 7.94327 27.888 7.31843 27.233 6.95513C26.5896 6.59826 25.8294 6.48293 25.3236 6.48293V6.98293ZM27.9347 8.93704V12.7942H28.4347V8.93704H27.9347ZM27.9347 12.7942C27.9347 12.9674 27.8312 13.1821 27.6439 13.3624C27.4575 13.5419 27.2304 13.6463 27.0403 13.6463L27.0402 14.1463C27.3963 14.1463 27.7414 13.9627 27.9907 13.7226C28.2391 13.4834 28.4347 13.147 28.4347 12.7942H27.9347ZM27.0403 13.6463H26.39V14.1463H27.0403V13.6463ZM19.0292 13.6463H11.0181V14.1463H19.0292V13.6463ZM20.1736 0.972656H11.0181V1.47266H20.1736V0.972656ZM25.3958 13.8963C25.3958 15.1241 24.3567 16.1514 23.0347 16.1514V17.1514C24.873 17.1514 26.3958 15.7117 26.3958 13.8963H25.3958ZM23.0347 16.1514C21.7127 16.1514 20.6736 15.1241 20.6736 13.8963H19.6736C19.6736 15.7117 21.1964 17.1514 23.0347 17.1514V16.1514ZM20.6736 13.8963C20.6736 12.6684 21.7127 11.6412 23.0347 11.6412V10.6412C21.1964 10.6412 19.6736 12.0809 19.6736 13.8963H20.6736ZM23.0347 11.6412C24.3567 11.6412 25.3958 12.6684 25.3958 13.8963H26.3958C26.3958 12.0809 24.873 10.6412 23.0347 10.6412V11.6412Z" fill="black" mask="url(#path-3-outside-2_2370_318)"/>
<path d="M19.8935 3.02832H15.0758C15.0206 3.02832 14.9758 3.07309 14.9758 3.12832V7.53691C14.9758 7.59214 15.0206 7.63691 15.0758 7.63691H22.2741C22.3498 7.63691 22.3981 7.55603 22.3621 7.4894L19.9815 3.08081C19.964 3.04847 19.9302 3.02832 19.8935 3.02832Z" stroke="black" stroke-width="0.5"/>
<path d="M8.78061 3.02832H13.5982C13.6535 3.02832 13.6982 3.07309 13.6982 3.12832V7.53691C13.6982 7.59214 13.6535 7.63691 13.5982 7.63691H6.39997C6.32425 7.63691 6.276 7.55603 6.31198 7.4894L8.69262 3.08081C8.71008 3.04847 8.74386 3.02832 8.78061 3.02832Z" stroke="black" stroke-width="0.5"/>
</svg>
