<svg width="26" height="26" viewBox="0 0 26 26" fill="none" xmlns="http://www.w3.org/2000/svg">
<path d="M7.27091 20.3977H7.21777C5.80888 20.3977 4.66675 21.5398 4.66675 22.9487V22.9487C4.66675 24.3576 5.80888 25.4997 7.21777 25.4997H22.9491C24.358 25.4997 25.5001 24.3576 25.5001 22.9487V22.9487C25.5001 21.5398 24.358 20.3977 22.9491 20.3977H22.8959M7.27091 20.3977V20.3977C7.27091 18.9888 8.41305 17.8467 9.82193 17.8467H20.3449C21.7538 17.8467 22.8959 18.9888 22.8959 20.3977V20.3977M7.27091 20.3977H22.8959" stroke="#8B8B8B" stroke-width="0.5"/>
<path d="M10.9167 22.9486C10.9167 23.7939 10.2172 24.4792 9.35425 24.4792C8.4913 24.4792 7.79175 23.7939 7.79175 22.9486C7.79175 22.1032 8.4913 21.418 9.35425 21.418C10.2172 21.418 10.9167 22.1032 10.9167 22.9486Z" fill="#8B8B8B"/>
<path d="M17.1667 22.9486C17.1667 23.7939 16.4672 24.4792 15.6042 24.4792C14.7413 24.4792 14.0417 23.7939 14.0417 22.9486C14.0417 22.1032 14.7413 21.418 15.6042 21.418C16.4672 21.418 17.1667 22.1032 17.1667 22.9486Z" fill="#8B8B8B"/>
<path d="M23.4167 22.9486C23.4167 23.7939 22.7172 24.4792 21.8542 24.4792C20.9913 24.4792 20.2917 23.7939 20.2917 22.9486C20.2917 22.1032 20.9913 21.418 21.8542 21.418C22.7172 21.418 23.4167 22.1032 23.4167 22.9486Z" fill="#8B8B8B"/>
<path d="M17.1667 17.8469H25.5V13.7653H17.1667V7.64286H12.4792L11.3491 8.74989M8.3125 18.3571V11.7245L9.30121 10.756M9.30121 10.756L3.10417 4.58163L2.0625 12.7449V12.8539H0.5V0.5H3.10417L11.3491 8.74989M9.30121 10.756L11.3491 8.74989M9.875 12.7449V13.7653H15.0833V9.17347H13.5208L9.875 12.7449ZM4.66667 13.2551L5.1875 12.2347H6.22917L4.66667 18.3571L0.5 15.8061V13.2551H4.66667Z" stroke="#8B8B8B" stroke-width="0.5"/>
</svg>
