<svg width="294" height="298" viewBox="0 0 294 298" fill="none" xmlns="http://www.w3.org/2000/svg">
<g clip-path="url(#clip0_2342_5891)">
<g filter="url(#filter0_i_2342_5891)">
<path d="M54.7392 91.123C52.2792 96.3168 51.4681 102.156 52.4174 107.836C53.3668 113.516 56.03 118.759 60.0404 122.841C64.0683 126.906 69.2403 129.606 74.8444 130.568C80.4485 131.53 86.209 130.708 91.333 128.215L54.7392 91.123Z" fill="#FFF4C6"/>
</g>
<path d="M131.501 50.409C117.717 36.4396 99.0234 28.5918 79.5316 28.5918C60.0398 28.5918 41.3462 36.4396 27.5625 50.409L131.501 155.761C138.327 148.845 143.742 140.633 147.437 131.594C151.131 122.556 153.033 112.869 153.033 103.085C153.033 93.3018 151.131 83.6143 147.437 74.576C143.742 65.5376 138.327 57.3256 131.501 50.409Z" fill="#EF4D4D"/>
<path d="M131.501 50.4088C140.637 59.6544 147.185 71.1955 150.473 83.85L170.483 63.5767C177.375 56.5908 181.247 47.1159 181.247 37.2363C181.247 27.3567 177.375 17.8818 170.483 10.8959C163.591 3.90999 154.243 -0.0146484 144.496 -0.0146484C134.749 -0.0146484 125.402 3.90999 118.509 10.8959L98.5083 31.1785C110.993 34.5113 122.379 41.148 131.501 50.4088Z" fill="#EF4D4D"/>
<path d="M105.867 23.7188L98.5083 31.1781V31.1874C104.408 32.7738 110.087 35.1046 115.413 38.1252C115.9 38.4046 116.369 38.7026 116.847 38.9912C118.905 40.2298 120.898 41.5615 122.855 43.0236C123.462 43.4706 124.086 43.9082 124.683 44.3832C127.045 46.255 129.332 48.2293 131.491 50.4177C133.65 52.6061 135.598 54.9249 137.436 57.3183C137.913 57.9236 138.345 58.5568 138.777 59.1714C140.21 61.155 141.533 63.1851 142.755 65.2618C143.031 65.7554 143.325 66.2303 143.61 66.7146C146.623 72.1717 148.902 77.9268 150.454 83.8496H150.464L157.823 76.3903C153.794 64.1216 147.003 52.9721 137.987 43.8244C128.972 34.6773 117.973 27.7923 105.867 23.7188Z" fill="black"/>
<path d="M136.535 150.127L136.581 150.071C151.796 131.139 156.261 106.452 150.353 83.9805L170.593 63.4557C177.267 56.6777 181.101 47.5497 181.297 37.9757C181.492 28.4017 178.033 19.121 171.641 12.0693C172.603 18.5164 172.06 25.1023 170.056 31.2982C168.052 37.4941 164.643 43.1273 160.101 47.7455C160.101 47.7455 145.851 62.4779 142.893 65.4672C142.884 91.6726 131.749 115.997 112.014 136L131.501 155.752C133.277 153.97 134.958 152.092 136.535 150.127Z" fill="black"/>
<path d="M147 251.428C134.817 251.428 123.132 256.333 114.517 265.066C105.902 273.798 101.063 285.641 101.062 297.99H192.938C192.938 285.641 188.098 273.798 179.483 265.066C170.868 256.333 159.183 251.428 147 251.428Z" fill="#DAE2E5"/>
<path d="M247.897 130.877L181.931 64.0137C180.456 66.2015 178.799 68.2577 176.979 70.1599L169.5 77.7403L232.876 141.978C234.478 139.169 236.642 136.73 239.229 134.818C241.816 132.907 244.768 131.564 247.897 130.877ZM232.793 165.138L147.606 251.484C154.808 251.616 161.877 253.477 168.232 256.913L247.713 176.35C244.592 175.642 241.651 174.278 239.081 172.347C236.511 170.416 234.369 167.96 232.793 165.138Z" fill="#434854"/>
<path d="M147.597 251.494L147.689 251.503C149.986 251.54 152.2 251.801 154.387 252.183C155.627 252.388 156.831 252.63 158.025 252.937C158.797 253.133 159.55 253.412 160.303 253.645C163.039 254.484 165.69 255.582 168.223 256.923L175.077 249.976C169.22 246.446 162.764 244.059 156.04 242.936L147.597 251.494Z" fill="black"/>
</g>
<defs>
<filter id="filter0_i_2342_5891" x="52.0312" y="91.123" width="39.3018" height="43.8369" filterUnits="userSpaceOnUse" color-interpolation-filters="sRGB">
<feFlood flood-opacity="0" result="BackgroundImageFix"/>
<feBlend mode="normal" in="SourceGraphic" in2="BackgroundImageFix" result="shape"/>
<feColorMatrix in="SourceAlpha" type="matrix" values="0 0 0 0 0 0 0 0 0 0 0 0 0 0 0 0 0 0 127 0" result="hardAlpha"/>
<feOffset dy="4"/>
<feGaussianBlur stdDeviation="2"/>
<feComposite in2="hardAlpha" operator="arithmetic" k2="-1" k3="1"/>
<feColorMatrix type="matrix" values="0 0 0 0 1 0 0 0 0 1 0 0 0 0 1 0 0 0 0.25 0"/>
<feBlend mode="normal" in2="shape" result="effect1_innerShadow_2342_5891"/>
</filter>
<clipPath id="clip0_2342_5891">
<rect width="294" height="298" fill="white"/>
</clipPath>
</defs>
</svg>
