<svg width="30" height="30" viewBox="0 0 30 30" fill="none" xmlns="http://www.w3.org/2000/svg">
<path d="M26.4584 13.0205H24.1667" stroke="black" stroke-width="0.5" stroke-linecap="round" stroke-linejoin="round"/>
<path d="M8.125 10.7292V5" stroke="black" stroke-width="0.5" stroke-linecap="round" stroke-linejoin="round"/>
<path d="M4.6875 5H11.5625" stroke="black" stroke-width="0.5" stroke-linecap="round" stroke-linejoin="round"/>
<path d="M11.7596 10.7295H3.54167C2.93388 10.7295 2.35098 10.9709 1.92121 11.4007C1.49144 11.8305 1.25 12.4134 1.25 13.0212V18.7504V22.1878C1.25 22.7956 1.49144 23.3785 1.92121 23.8083C2.35098 24.2381 2.93388 24.4795 3.54167 24.4795H15.3048C16.1357 24.4796 16.9509 24.2538 17.6634 23.8263C18.3758 23.3989 18.9587 22.7858 19.3496 22.0526L24.1667 13.0212L17.9631 15.0882C17.7613 15.1559 17.5446 15.166 17.3374 15.1175C17.1301 15.0689 16.9405 14.9635 16.7898 14.8132L13.3798 11.3987C12.9497 10.9697 12.367 10.729 11.7596 10.7295Z" stroke="black" stroke-width="0.5" stroke-linecap="round" stroke-linejoin="round"/>
<path d="M28.75 19.8955V22.1872" stroke="black" stroke-width="0.5" stroke-linecap="round" stroke-linejoin="round"/>
</svg>
