<svg width="30" height="30" viewBox="0 0 30 30" fill="none" xmlns="http://www.w3.org/2000/svg">
<ellipse cx="7.22822" cy="21.739" rx="2.39131" ry="2.3913" stroke="#4B4B4B" stroke-width="0.5"/>
<ellipse cx="22.5327" cy="21.739" rx="2.39131" ry="2.3913" stroke="#4B4B4B" stroke-width="0.5"/>
<path d="M19.7826 9.18479L19.7826 6C19.7826 5.44772 19.3349 5 18.7826 5H2.25C1.69772 5 1.25 5.44771 1.25 6V17.5544C1.25 17.8845 1.51766 18.1522 1.84783 18.1522V18.1522M19.7826 9.18479L19.8362 18.1522M19.7826 9.18479H22.7718M25.8811 21.3639H27.75C28.3023 21.3639 28.75 20.9162 28.75 20.3639V15.7609M19.3273 21.3639H16.9007M10.5602 21.3639H12.6087M4.08015 21.3639C4.08015 21.3639 2.78743 21.3639 1.95912 21.3639V21.3639C1.89765 21.3639 1.84783 21.3141 1.84783 21.2526V18.1522M1.84783 18.1522H12.6087M19.7826 18.1522H19.8362M12.6087 21.3639V18.1522M12.6087 21.3639H16.9007M12.6087 18.1522H16.9007M16.9007 21.3639V18.1522M16.9007 18.1522H19.8362M22.7718 9.18479H24.5652L27.2855 11.9051C28.2232 12.8428 28.75 14.1146 28.75 15.4406V15.7609M22.7718 9.18479V14.7609C22.7718 15.3132 23.2195 15.7609 23.7718 15.7609H28.75" stroke="#4B4B4B" stroke-width="0.5" stroke-linecap="round" stroke-linejoin="round"/>
</svg>
