<svg width="19" height="19" viewBox="0 0 19 19" fill="none" xmlns="http://www.w3.org/2000/svg">
<path d="M4.81245 9.5C6.85307 9.5 8.59057 10.8047 9.23432 12.625H18.8749V15.75H9.23276C8.94654 16.5608 8.44291 17.2772 7.77693 17.8211C7.11096 18.3649 6.30828 18.7151 5.45666 18.8335C4.60504 18.9518 3.73727 18.8338 2.94823 18.4922C2.15919 18.1506 1.47927 17.5986 0.982789 16.8967C0.486313 16.1947 0.192406 15.3697 0.133201 14.5119C0.0739973 13.6542 0.251776 12.7966 0.6471 12.0331C1.04242 11.2696 1.64007 10.6294 2.3747 10.1827C3.10932 9.73593 3.95264 9.49976 4.81245 9.5ZM4.81245 12.625C4.39805 12.625 4.00062 12.7896 3.70759 13.0826C3.41457 13.3757 3.24995 13.7731 3.24995 14.1875C3.24995 14.6019 3.41457 14.9993 3.70759 15.2924C4.00062 15.5854 4.39805 15.75 4.81245 15.75C5.22685 15.75 5.62428 15.5854 5.9173 15.2924C6.21033 14.9993 6.37495 14.6019 6.37495 14.1875C6.37495 13.7731 6.21033 13.3757 5.9173 13.0826C5.62428 12.7896 5.22685 12.625 4.81245 12.625ZM14.1874 0.125C15.0468 0.125164 15.8895 0.361548 16.6236 0.808316C17.3577 1.25508 17.9548 1.89504 18.3497 2.65825C18.7446 3.42145 18.9222 4.27854 18.8629 5.13582C18.8036 5.99311 18.5098 6.8176 18.0136 7.51919C17.5174 8.22079 16.8379 8.77248 16.0493 9.11397C15.2608 9.45547 14.3935 9.57362 13.5423 9.45552C12.6912 9.33742 11.8888 8.98761 11.223 8.44433C10.5572 7.90104 10.0536 7.18518 9.76714 6.375H0.124948V3.25H9.76557C10.089 2.33582 10.688 1.54441 11.4799 0.98475C12.2718 0.425092 13.2177 0.12472 14.1874 0.125ZM14.1874 3.25C13.773 3.25 13.3756 3.41462 13.0826 3.70765C12.7896 4.00067 12.6249 4.3981 12.6249 4.8125C12.6249 5.2269 12.7896 5.62433 13.0826 5.91735C13.3756 6.21038 13.773 6.375 14.1874 6.375C14.6018 6.375 14.9993 6.21038 15.2923 5.91735C15.5853 5.62433 15.7499 5.2269 15.7499 4.8125C15.7499 4.3981 15.5853 4.00067 15.2923 3.70765C14.9993 3.41462 14.6018 3.25 14.1874 3.25Z" fill="#373737"/>
</svg>
