<svg width="13" height="16" viewBox="0 0 13 16" fill="none" xmlns="http://www.w3.org/2000/svg">
<path d="M10.4583 8.375V9.125C10.4583 9.33211 10.2811 9.5 10.0624 9.5C9.84383 9.5 9.66661 9.33211 9.66661 9.125V7.625C9.66661 7.41789 9.48939 7.25 9.27077 7.25C9.05216 7.25 8.87494 7.41789 8.87494 7.625V9.125C8.87494 9.33211 8.69772 9.5 8.47911 9.5C8.26049 9.5 8.08327 9.33211 8.08327 9.125V6.875C8.08327 6.66789 7.90605 6.5 7.68744 6.5C7.46883 6.5 7.29161 6.66789 7.29161 6.875V9.125C7.29161 9.33211 7.11439 9.5 6.89577 9.5C6.67716 9.5 6.49994 9.33211 6.49994 9.125V3.125C6.49994 2.91789 6.32272 2.75 6.10411 2.75C5.88549 2.75 5.70827 2.91789 5.70827 3.125V6.875V8.78558C5.70827 9.03376 5.61643 9.27409 5.44872 9.46475C5.05278 9.91486 4.34665 9.97568 3.87153 9.60058L3.14017 9.02319C2.91658 8.84667 2.63474 8.75 2.34369 8.75C2.13282 8.75 1.94059 8.86446 1.84915 9.04447L1.82089 9.10011C1.7139 9.31074 1.74631 9.56111 1.90384 9.74101L5.39783 13.7311C5.96302 14.3765 6.80224 14.75 7.68744 14.75C9.65495 14.75 11.2499 13.239 11.2499 11.375V8.375C11.2499 8.16789 11.0727 8 10.8541 8C10.6355 8 10.4583 8.16789 10.4583 8.375ZM10.4167 7.32878C10.552 7.27794 10.6996 7.25 10.8541 7.25C11.5099 7.25 12.0416 7.75368 12.0416 8.375V11.375C12.0416 13.6532 10.0922 15.5 7.68744 15.5C6.56667 15.5 5.50412 15.0272 4.78853 14.21L1.29454 10.2199C0.939368 9.81427 0.866309 9.24976 1.10753 8.77489L1.13579 8.71925C1.35913 8.27957 1.82864 8 2.34369 8C2.81994 8 3.28111 8.15818 3.64698 8.44702L4.37835 9.02442C4.51758 9.13434 4.72451 9.11652 4.84054 8.98461C4.88969 8.92874 4.91661 8.85831 4.91661 8.78558V6.875V3.125C4.91661 2.50368 5.44827 2 6.10411 2C6.75994 2 7.29161 2.50368 7.29161 3.125V5.81401C7.41541 5.77256 7.54865 5.75 7.68744 5.75C8.23506 5.75 8.69611 6.10117 8.83334 6.57878C8.96872 6.52794 9.1163 6.5 9.27077 6.5C9.8184 6.5 10.2794 6.85117 10.4167 7.32878ZM8.87494 3.125C8.87494 3.33211 8.69772 3.5 8.47911 3.5C8.26049 3.5 8.08327 3.33211 8.08327 3.125C8.08327 2.08947 7.19717 1.25 6.10411 1.25C5.01104 1.25 4.12494 2.08947 4.12494 3.125C4.12494 3.33211 3.94772 3.5 3.72911 3.5C3.51049 3.5 3.33327 3.33211 3.33327 3.125C3.33327 1.67525 4.57382 0.5 6.10411 0.5C7.6344 0.5 8.87494 1.67525 8.87494 3.125Z" fill="white"/>
</svg>
