<svg width="126" height="42" viewBox="0 0 126 42" fill="none" xmlns="http://www.w3.org/2000/svg">
<path d="M20.5511 1.10156C15.3342 1.27556 10.3945 3.49256 6.79701 7.27466C3.19947 11.0568 1.23217 16.101 1.31917 21.3201C1.40618 26.5392 3.54054 31.5152 7.26215 35.1752C10.9838 38.8353 15.9945 40.8864 21.2144 40.8864C26.4342 40.8864 31.445 38.8353 35.1666 35.1752C38.8882 31.5152 41.0226 26.5392 41.1096 21.3201C41.1966 16.101 39.2293 11.0568 35.6317 7.27466C32.0342 3.49256 27.0946 1.27556 21.8776 1.10156H20.5511ZM48.4083 1.10156C43.1913 1.27556 38.2517 3.49256 34.6542 7.27466C31.0566 11.0568 29.0893 16.101 29.1763 21.3201C29.2633 26.5392 31.3977 31.5152 35.1193 35.1752C38.8409 38.8353 43.8517 40.8864 49.0715 40.8864C54.2913 40.8864 59.3021 38.8353 63.0237 35.1752C66.7453 31.5152 68.8797 26.5392 68.9667 21.3201C69.0537 16.101 67.0864 11.0568 63.4889 7.27466C59.8913 3.49256 54.9517 1.27556 49.7348 1.10156H48.4083ZM76.2654 1.10156C71.0485 1.27556 66.1088 3.49256 62.5113 7.27466C58.9138 11.0568 56.9465 16.101 57.0335 21.3201C57.1205 26.5392 59.2548 31.5152 62.9764 35.1752C66.698 38.8353 71.7088 40.8864 76.9287 40.8864C82.1485 40.8864 87.1593 38.8353 90.8809 35.1752C94.6025 31.5152 96.7368 26.5392 96.8239 21.3201C96.9109 16.101 94.9435 11.0568 91.346 7.27466C87.7485 3.49256 82.8088 1.27556 77.5919 1.10156H76.2654ZM104.123 1.10156C98.9056 1.27556 93.966 3.49256 90.3684 7.27466C86.7709 11.0568 84.8036 16.101 84.8906 21.3201C84.9776 26.5392 87.112 31.5152 90.8336 35.1752C94.5552 38.8353 99.566 40.8864 104.786 40.8864C110.006 40.8864 115.016 38.8353 118.738 35.1752C122.46 31.5152 124.594 26.5392 124.681 21.3201C124.768 16.101 122.801 11.0568 119.203 7.27466C115.606 3.49256 110.666 1.27556 105.449 1.10156H104.123Z" stroke="#8D8A8B" stroke-width="2"/>
</svg>
