<svg width="65" height="60" viewBox="0 0 65 60" fill="none" xmlns="http://www.w3.org/2000/svg">
<path fill-rule="evenodd" clip-rule="evenodd" d="M63.0371 56.1763C57.3625 51.3108 40.5033 37.4659 32.5 37.4659C24.4932 37.4659 7.64692 51.3014 1.96877 56.1704C1.93466 55.0202 1.90291 54.3216 1.90291 53.2972C1.90291 53.2972 1.76413 51.606 3.26012 49.9136C15.569 38.7608 28.4743 33.3037 28.8706 33.1367C32.7188 31.5102 32.5023 31.816 32.4988 25.2887C32.4988 25.2887 32.6705 25.2781 32.7799 25.2899C38.1993 25.7803 52.7699 39.9216 61.3929 49.482C61.4082 49.4985 63.0947 51.4508 63.0947 53.5089C63.0971 54.4733 63.0689 55.4248 63.0371 56.1763ZM62.8054 48.1954C61.8892 47.1792 40.3116 23.3611 32.5 23.3611C24.6908 23.3611 3.11193 47.1792 2.19693 48.1942L2.19576 48.1954C2.10637 48.2953 0 50.7028 0 53.5101C0 55.6953 0.144659 57.8946 0.147011 57.9157C0.151715 58.0169 0.202287 58.946 0.718589 59.1988C0.802091 59.24 0.892651 59.2612 0.985562 59.2612C1.17726 59.2612 1.39131 59.1753 1.623 59.006C1.85587 58.8002 23.8381 39.3841 32.5 39.3841C41.1631 39.3841 63.1465 58.8001 63.3664 58.9966C63.6063 59.173 63.8227 59.2612 64.0168 59.2612C64.1109 59.2612 64.1991 59.24 64.2838 59.2C64.7989 58.9483 64.8495 58.018 64.8542 57.9134C64.8553 57.8969 65 55.6976 65 53.5125C65 50.7028 62.8936 48.2953 62.8054 48.1954ZM63.0065 33.5225C57.3378 28.6629 40.495 14.8321 32.5012 14.8321C24.5026 14.8321 7.67279 28.6547 2.00052 33.5178C1.96642 32.3699 1.93467 31.6702 1.93467 30.6481C1.93467 30.6481 1.79588 28.9581 3.29069 27.2681C15.5879 16.1258 28.4801 10.6746 28.8753 10.5076C32.7199 8.88229 32.5035 9.18807 32.5 2.66784C32.5 2.66784 32.6705 2.65726 32.7811 2.66902C38.1946 3.15945 52.751 17.2866 61.3647 26.8364C61.38 26.8529 63.0653 28.8029 63.0653 30.8598C63.0665 31.8219 63.0371 32.7722 63.0065 33.5225ZM62.7748 25.5498C61.8587 24.5348 40.3033 0.740234 32.5 0.740234C24.699 0.740234 3.14133 24.5348 2.22751 25.5486L2.22633 25.5498C2.13695 25.6498 0.0317552 28.0549 0.0317552 30.8598C0.0317552 33.0427 0.17759 35.2396 0.178766 35.2608C0.183471 35.3619 0.234042 36.2898 0.749169 36.5427C0.832671 36.5839 0.923229 36.6038 1.01614 36.6038C1.20784 36.6038 1.42072 36.518 1.6524 36.3486C1.88645 36.1428 23.8463 16.7468 32.5 16.7468C41.1548 16.7468 63.1159 36.1428 63.3358 36.3392C63.5746 36.5156 63.791 36.6027 63.985 36.6027C64.0791 36.6027 64.1673 36.5827 64.252 36.5415C64.766 36.2898 64.8177 35.3607 64.8212 35.2561C64.8224 35.2396 64.9671 33.0427 64.9671 30.8598C64.9682 28.0549 62.8642 25.6498 62.7748 25.5498Z" fill="#8D8A8B"/>
</svg>
