<svg width="100" height="56" viewBox="0 0 100 56" fill="none" xmlns="http://www.w3.org/2000/svg">
<g clip-path="url(#clip0_2699_3954)">
<path fill-rule="evenodd" clip-rule="evenodd" d="M5.61914 0.693359V9.08827H36.6879V13.3209V17.5537H5.61914V25.9486H39.9233C40.7101 25.9486 41.2288 25.7304 41.7651 25.1911L50.7969 16.4057L59.8289 25.1911C60.3653 25.7304 60.8839 25.9486 61.6708 25.9486H95.9749V17.5537H64.9059V13.3209V9.08827H95.9749V0.693359H61.6708C60.8839 0.693359 60.3653 0.911646 59.8289 1.45087L50.7969 10.2363L41.7651 1.45087C41.2288 0.911646 40.7101 0.693359 39.9233 0.693359H5.61914Z" fill="#7A7A7A"/>
<path fill-rule="evenodd" clip-rule="evenodd" d="M0 44.8008V48.27L12.7684 48.3518C13.0732 48.3518 13.2419 48.4217 13.4358 48.6156L14.7937 49.789C14.893 49.8884 14.9385 49.9518 14.9385 50.0542C14.9385 50.1565 14.893 50.2203 14.7937 50.3196L13.4358 51.493C13.2419 51.6869 13.0732 51.7568 12.7684 51.7568L0 51.8386V55.3078H14.3671C14.8801 55.3078 15.1331 55.224 15.4622 54.8949L19.5675 50.6513C19.7221 50.4967 19.8233 50.2553 19.8233 50.0542C19.8233 49.8531 19.7221 49.6119 19.5675 49.4573L15.4622 45.2135C15.1331 44.8844 14.8801 44.8008 14.3671 44.8008H0Z" fill="#7A7A7A"/>
<path d="M32.4131 44.8008C32.1871 44.8008 32.059 44.8461 31.9704 44.9347L21.8913 55.0553C21.7854 55.1616 21.8332 55.3078 21.9977 55.3078H26.8985L32.0963 49.916C32.2042 49.8081 32.2852 49.7631 32.4131 49.7631C32.5409 49.7631 32.622 49.8081 32.7298 49.916L37.9276 55.3078H42.8284C42.9929 55.3078 43.0407 55.1616 42.9348 55.0553L32.8557 44.9347C32.7671 44.8461 32.639 44.8008 32.4131 44.8008Z" fill="#7A7A7A"/>
<path fill-rule="evenodd" clip-rule="evenodd" d="M64.9103 44.8008V48.27L52.1419 48.3518C51.8371 48.3518 51.6683 48.4217 51.4744 48.6156L50.1166 49.789C50.0173 49.8884 49.9717 49.9518 49.9717 50.0542C49.9717 50.1565 50.0173 50.2203 50.1166 50.3196L51.4744 51.493C51.6683 51.6869 51.8371 51.7568 52.1419 51.7568L64.9103 51.8386V55.3078H50.5432C50.0301 55.3078 49.7772 55.224 49.4481 54.8949L45.3427 50.6513C45.1881 50.4967 45.0869 50.2553 45.0869 50.0542C45.0869 49.8531 45.1881 49.6119 45.3427 49.4573L49.4481 45.2135C49.7772 44.8844 50.0301 44.8008 50.5432 44.8008H64.9103Z" fill="#7A7A7A"/>
<path d="M74.9243 44.8008H70.9082V55.3078H74.9243V44.8008Z" fill="#7A7A7A"/>
<path d="M89.4218 44.8008C89.1959 44.8008 89.0678 44.8461 88.9792 44.9347L78.9001 55.0553C78.7942 55.1616 78.842 55.3079 79.0065 55.3079H83.9073L89.1051 49.916C89.2129 49.8082 89.294 49.7631 89.4218 49.7631C89.5497 49.7631 89.6307 49.8082 89.7386 49.916L94.9364 55.3079H99.8372C100.002 55.3079 100.049 55.1616 99.9436 55.0553L89.8645 44.9347C89.7758 44.8461 89.6478 44.8008 89.4218 44.8008Z" fill="#7A7A7A"/>
</g>
<defs>
<clipPath id="clip0_2699_3954">
<rect width="100" height="54.6149" fill="white" transform="translate(0 0.693359)"/>
</clipPath>
</defs>
</svg>
