<svg width="85" height="44" viewBox="0 0 85 44" fill="none" xmlns="http://www.w3.org/2000/svg">
<path fill-rule="evenodd" clip-rule="evenodd" d="M51.3982 27.0045C52.0454 30.3491 50.2924 33.1271 48.8359 35.8236C47.218 38.3324 44.5478 40.4887 41.3383 40.166C34.1362 40.0582 27.0973 38.9524 20.5696 36.9828C20.2732 36.9022 19.9768 36.7127 19.8145 36.4436C19.6795 36.0656 19.8689 35.7148 20.1381 35.4728C26.0994 30.6445 33.1927 28.4067 40.2053 26.0592C42.8211 25.3042 45.6001 24.4948 48.5395 24.8727C49.7522 25.035 50.9659 25.8716 51.3982 27.0045ZM75.9692 12.71C79.3137 15.4609 82.3347 19.2106 81.3096 23.7416C79.6373 30.4306 72.3555 33.9909 66.5565 36.2559C63.4005 37.3082 60.2182 38.3877 56.7658 38.7113C56.5501 38.6841 56.1993 38.7376 56.1449 38.414L56.2256 38.037C61.1345 32.5071 64.8561 26.3048 68.1209 20.02C69.6309 17.1875 71.034 14.2754 72.3283 11.4157C72.5168 11.2 72.7062 11.0922 72.922 11.0115C74.1347 11.1184 74.9985 12.0629 75.9692 12.71ZM28.9028 5.58953L28.7949 5.99377C21.7016 14.0578 17.0356 23.4171 12.6125 32.722C11.7496 33.5314 10.913 32.4519 10.1308 32.1011C6.19259 29.5125 2.63233 25.3314 3.65745 20.3689C5.30252 13.8965 11.9644 10.4441 17.5214 8.09838C20.8116 6.85755 24.2377 5.85963 27.8514 5.29314C28.2294 5.29224 28.7143 5.23876 28.9028 5.58953ZM64.102 6.88384C64.5062 7.09956 64.9921 7.18022 65.235 7.58447C65.4507 8.04309 65.0193 8.33948 64.7763 8.63677C59.1931 13.0055 52.8013 15.4337 46.2735 17.5646C42.9553 18.374 39.6108 19.8305 35.9164 19.0211C35.0526 18.8054 34.2713 18.2389 33.7855 17.4024C32.8682 14.8672 34.109 12.2242 35.1876 10.0127C36.617 7.2346 39.153 3.97074 42.6589 3.91726C50.2108 3.86288 57.3314 4.99585 64.102 6.88384ZM73.4341 7.09955C79.1524 10.2284 85.6258 15.7301 84.9514 23.0663C84.1692 29.8632 77.8309 34.6099 72.167 37.4696C55.6328 45.3723 32.4105 45.6143 15.337 38.7104C9.56431 36.3103 3.09096 32.1836 0.662773 25.9794C-1.19802 20.8819 1.06702 15.5688 4.87109 12.0357C12.8273 4.80732 22.9687 2.32657 33.4075 0.896302C44.7363 -0.47958 56.657 0.734061 66.7985 4.21365C69.0644 5.05023 71.3032 5.96749 73.4341 7.09955Z" fill="#8D8A8B"/>
</svg>
