<svg width="85" height="36" viewBox="0 0 85 36" fill="none" xmlns="http://www.w3.org/2000/svg">
<g clip-path="url(#clip0_2699_3936)">
<path d="M70.8894 19.1597C70.8203 22.9727 71.6438 24.9924 74.7871 24.9924C77.9252 24.9924 78.3755 21.552 78.3755 18.9339C78.3755 16.3142 77.78 13.771 74.483 13.771C72.4604 13.771 70.9671 15.3426 70.8894 19.1597ZM64.5303 35.0938V9.28298H70.9671C70.9671 9.28298 70.9671 9.65674 70.9671 10.33C70.9671 11.7265 71.5304 11.1506 71.9842 10.6064C72.0602 10.5154 73.4948 8.75949 76.7256 8.75949C79.9466 8.75949 84.9575 11.0032 84.9575 18.9339C84.9575 25.0685 81.968 29.5565 76.805 29.5565C73.9601 29.5565 72.3153 28.4363 71.9392 27.9842C71.5626 27.5385 71.0397 27.4607 71.0397 27.9842C71.0397 28.5089 71.0397 35.0938 71.0397 35.0938H64.5303Z" fill="#8D8A8B"/>
<path d="M14.7797 0.905733H21.7378C21.7378 0.905733 21.7378 16.0162 21.7378 19.1595C21.7378 22.2993 20.3896 28.8848 10.7403 28.8848C1.08996 28.8848 0.0429688 22.7468 0.0429688 19.3081V15.942H6.77641C6.77641 15.942 6.77641 17.2135 6.77641 19.2321C6.77641 21.2518 8.12345 23.1211 10.6655 23.1211C13.2087 23.1211 14.7797 21.7004 14.7797 19.3081C14.7797 16.9141 14.7797 0.905733 14.7797 0.905733Z" fill="#8D8A8B"/>
<path d="M36.2888 16.3899C36.2888 14.5177 35.2435 12.7226 32.8495 12.7226C30.5303 12.7226 29.7068 14.3668 29.7068 16.3899H36.2888ZM32.1785 8.53405C37.6427 8.53405 42.4284 10.628 42.4284 20.279H29.4874C29.4874 23.3462 30.7578 24.6184 33.0021 24.6184C35.247 24.6184 35.9945 22.8216 35.9945 22.8216H42.3553C42.3553 25.5905 38.5394 29.331 32.7775 29.2567C26.1961 29.2567 22.9785 24.3938 22.9785 19.3812C22.9785 14.3668 25.8194 8.53405 32.1785 8.53405Z" fill="#8D8A8B"/>
<path d="M56.977 16.3899C56.977 14.5177 55.9306 12.7226 53.5366 12.7226C51.2186 12.7226 50.3933 14.3668 50.3933 16.3899H56.977ZM52.8668 8.53405C58.3304 8.53405 63.115 10.628 63.115 20.279H50.1745C50.1745 23.3462 51.446 24.6184 53.6921 24.6184C55.9346 24.6184 56.6833 22.8216 56.6833 22.8216H63.0441C63.0441 25.5905 59.2276 29.331 53.4675 29.2567C46.8826 29.2567 43.665 24.3938 43.665 19.3812C43.665 14.3668 46.5094 8.53405 52.8668 8.53405Z" fill="#8D8A8B"/>
<path d="M80.6976 32.0002C80.6976 30.9779 81.5298 30.1475 82.5555 30.1475C83.5777 30.1475 84.4082 30.9779 84.4082 32.0002C84.4082 33.0207 83.5777 33.8563 82.5555 33.8563C81.5298 33.8563 80.6976 33.0207 80.6976 32.0002ZM80.4834 32.0002C80.4834 33.1439 81.4094 34.0723 82.5555 34.0723C83.6941 34.0723 84.6253 33.1439 84.6253 32.0002C84.6253 30.8564 83.6941 29.9281 82.5555 29.9281C81.4094 29.9281 80.4834 30.8564 80.4834 32.0002Z" fill="#8D8A8B"/>
<path d="M83.3852 33.0586L82.955 32.0427C83.0915 31.9955 83.137 31.9621 83.2096 31.8843C83.304 31.783 83.3634 31.6229 83.3634 31.4777C83.3634 31.1115 83.0817 30.8621 82.6734 30.8621H81.8096V33.0586H82.0658V32.1072H82.6901L83.1002 33.0586H83.3852ZM82.0589 31.8843V31.1011H82.6682C82.9228 31.1011 83.0846 31.2462 83.0846 31.4708C83.0846 31.726 82.913 31.8843 82.6325 31.8843H82.0589Z" fill="#8D8A8B"/>
</g>
<defs>
<clipPath id="clip0_2699_3936">
<rect width="85" height="34.2728" fill="white" transform="translate(0 0.863281)"/>
</clipPath>
</defs>
</svg>
