<svg width="70" height="70" viewBox="0 0 70 70" fill="none" xmlns="http://www.w3.org/2000/svg">
<path fill-rule="evenodd" clip-rule="evenodd" d="M50.4315 5.5195C61.0181 11.0871 68.25 22.1874 68.25 34.9825C68.25 47.7776 61.0181 58.9129 50.4315 64.4464V60.6419C54.4801 58.2199 57.9048 54.831 60.3968 50.82L50.4315 46.7749V40.6192L61.3646 49.161C63.6483 44.9417 64.9285 40.1345 64.9285 34.9816C64.9285 24.1229 59.115 14.5792 50.4315 9.32225V5.5195ZM35.035 1.75C40.5711 1.75 45.7948 3.09925 50.4315 5.5195V9.324C46.1755 6.76375 41.1932 5.243 35.9345 5.06975L39.7399 32.2857L50.4315 40.6201V46.7757L34.965 40.516L19.6026 46.8099V40.6884L30.3634 32.2849L34.1346 5.06888C28.8059 5.24213 23.8586 6.76375 19.6026 9.32225V5.5195C24.2051 3.09925 29.4639 1.75 35.035 1.75ZM50.4315 64.4464C45.7948 66.8666 40.5702 68.2491 35.035 68.2491C29.4647 68.2491 24.206 66.8666 19.6035 64.4805V60.6419C24.1019 63.3727 29.3947 64.9294 35.035 64.9294C40.6402 64.9294 45.8998 63.3727 50.4315 60.6419V64.4464ZM19.6035 64.4805C8.981 58.9129 1.75 47.7776 1.75 34.9825C1.75 22.1874 8.981 11.0871 19.6035 5.5195V9.324C10.8841 14.5801 5.0715 24.0896 5.0715 34.9825C5.0715 40.1345 6.38663 45.0117 8.67037 49.2301L19.6035 40.6884V46.8099L9.67312 50.8891C12.1642 54.8677 15.5549 58.2207 19.6035 60.6419V64.4805Z" fill="#8D8A8B"/>
</svg>
