<svg width="80" height="64" viewBox="0 0 80 64" fill="none" xmlns="http://www.w3.org/2000/svg">
<path d="M40.0007 59.4818C24.8471 59.4818 12.5181 47.1527 12.5181 31.9991C12.5181 31.2171 12.5582 30.444 12.6253 29.6799L35.5993 31.1144L25.6563 37.9874C25.5222 38.0812 25.4328 38.2376 25.4328 38.4119C25.4328 38.6979 25.6652 38.9348 25.9512 38.9348H66.5991C63.5156 50.741 52.7588 59.4823 40.0008 59.4823M40.0008 4.51601C55.159 4.51601 67.4834 16.845 67.4834 31.9986C67.4834 32.7762 67.4433 33.5449 67.3807 34.3045H67.3673L44.3932 32.8431L54.3631 26.0104C54.5016 25.9166 54.5865 25.7601 54.5865 25.5858C54.5865 25.2954 54.3541 25.063 54.0681 25.063H13.4065C16.4855 13.2568 27.2422 4.51538 40.0002 4.51538M79.4011 35.0685L71.8802 34.5904L70.973 34.5323C71.04 33.6966 71.0848 32.8519 71.0848 31.9985C71.0848 14.8612 57.1416 0.917969 39.9997 0.917969C25.2442 0.917969 12.8695 11.2544 9.70626 25.0624H2.83772C2.44894 25.0624 2.10484 25.2456 1.88587 25.5316L0.129595 27.9581C0.0491711 28.0609 0 28.1905 0 28.329C0 28.6597 0.268126 28.9279 0.603287 28.9279L8.09302 29.3926L9.03147 29.4552C8.96443 30.2954 8.91982 31.14 8.91982 31.998C8.91982 49.1353 22.863 63.0831 40.0003 63.0831C54.7558 63.0831 67.1351 52.7423 70.2937 38.9342H77.1667C77.5555 38.9342 77.8996 38.7509 78.1186 38.4649L79.8749 36.0383C79.9553 35.9356 80 35.806 80 35.6674C80 35.3367 79.7319 35.0686 79.4012 35.0686" fill="#100C0D"/>
</svg>
